<svg width="844" height="315" viewBox="0 0 844 315" fill="none" xmlns="http://www.w3.org/2000/svg">
<path d="M229.154 313.483C210.691 310.844 199.663 306.311 192.261 298.316C179.897 284.961 182.156 266.762 198.005 252.034C218.837 232.677 254.399 220.058 305.654 213.836C317.23 212.431 326.517 211.853 343.789 211.459L358.423 211.125L362.182 204.081C370.374 188.731 385.532 157.397 385.102 156.7C384.98 156.504 379.991 161.237 374.017 167.218C359.718 181.532 351.035 188.163 339.154 193.839C329.735 198.339 321.803 200.29 312.964 200.283C297.483 200.272 285.561 192.022 283.276 179.738C282.975 178.115 282.592 176.787 282.427 176.787C282.261 176.787 280.92 178.157 279.446 179.833C275.298 184.546 265.8 192.849 261.857 195.211C259.901 196.382 256.25 198.028 253.741 198.869C249.653 200.239 248.712 200.373 244.667 200.172C238.979 199.89 235.501 198.437 232.586 195.124C229.548 191.673 228.707 188.475 229.034 181.597C229.452 172.787 231.601 167.075 243.505 143.117C253.923 122.152 254.54 120.47 252.49 118.614C250.243 116.582 246.874 118.144 239.154 124.8C232.306 130.705 227.351 136.146 217.081 149.037C200.681 169.623 190.85 186.245 189.575 195.548C189.409 196.759 188.909 198.065 188.463 198.448C186.247 200.357 180.272 200.864 175.732 199.529C171.929 198.41 169.379 196.789 167.726 194.439C165.776 191.664 165.356 186.489 166.649 181.156C168.045 175.393 173.041 162.429 178.545 150.287C179.231 148.775 180.295 146.412 180.909 145.037C188.783 127.401 190.885 122.985 201.742 101.287C214.519 75.7565 225.206 56.7225 229.331 52.1575C232.952 48.1485 239.159 45.6885 245.654 45.6885C253.142 45.6865 258.551 49.1895 255.428 52.0155C252.314 54.8335 244.692 67.7555 230.639 94.0375C222.664 108.95 209.226 137.16 204.198 149.537C203.193 152.012 202.114 154.542 201.803 155.161C201.326 156.107 201.545 157.393 202.073 156.746C202.167 156.631 203.234 155.187 204.443 153.537C213.06 141.789 228.243 124.198 235.029 118.101C247.753 106.669 254.928 102.844 264.486 102.399C268.831 102.197 269.587 102.297 271.986 103.4C277.763 106.056 280.404 110.002 280.404 115.976C280.404 122.552 279.082 125.91 267.39 149.049C255.812 171.962 253.852 176.752 253.728 182.455C253.663 185.492 253.787 185.981 254.836 186.83C256.445 188.135 258.956 188.031 261.903 186.537C265.671 184.628 272.734 178.43 278.271 172.173C282.946 166.89 283.279 166.367 283.609 163.83C284.841 154.341 291.129 141.488 299.798 130.739C304.12 125.379 313.38 116.638 318.938 112.669C324.891 108.417 333.37 104.148 339.024 102.554C358.79 96.9825 374.837 102.989 375.79 116.316C376.42 125.117 372.336 133.979 363.699 142.552C351.987 154.177 335.402 160.98 316.953 161.726L309.253 162.037L308.587 163.96C307.61 166.789 306.856 173.659 307.208 176.533C307.898 182.16 311.264 186.369 316.164 187.729C321.005 189.073 330.133 187.828 337.751 184.783C349.559 180.064 362.986 169.751 378.444 153.527C388.92 142.532 393.407 136.195 395.905 128.866C397.821 123.246 401.966 113.813 404.029 110.382C406.232 106.719 410.134 103.246 413.332 102.104C416.473 100.983 422.266 100.838 425.688 101.796C428.174 102.492 431.904 105.624 431.904 107.015C431.904 107.415 431.321 108.597 430.607 109.64C428.043 113.39 425.266 119.725 418.378 137.537C408.942 161.943 391.08 202.032 386.255 209.638C385.521 210.793 385.087 211.835 385.288 211.953C385.49 212.071 387.904 212.318 390.654 212.503C406.127 213.541 427.519 215.637 441.904 217.524C452.351 218.896 471.096 221.934 533.904 232.44C578.327 239.87 593.26 241.946 620.816 244.516C645.211 246.792 675.557 247.321 694.072 245.797C718.515 243.785 738.59 238.623 743.18 233.167C747.729 227.76 738.534 220.831 726.764 220.796C724.58 220.789 723.797 220.591 723.565 219.986C722.995 218.499 724.516 218.224 731.904 218.473C744.368 218.893 751.136 221.822 754.223 228.133C755.388 230.514 755.506 231.245 755.314 234.92C755.131 238.392 754.833 239.531 753.417 242.189C748.801 250.848 735.503 258.316 716.275 263.047C700.822 266.85 688.45 268.028 663.904 268.029C624.256 268.032 594.017 263.975 531.654 250.286C527.804 249.441 523.641 248.542 522.404 248.289C521.167 248.036 515.654 246.797 510.154 245.533C504.654 244.271 497.679 242.701 494.654 242.045C491.629 241.389 484.092 239.728 477.904 238.352C438.04 229.487 405.639 224.025 383.833 222.496C379.171 222.169 379.001 222.195 378.665 223.253C378.213 224.677 370.905 235.507 366.034 241.97C340.511 275.845 308.127 299.673 274.654 309.206C263.654 312.339 256.146 313.345 242.404 313.535C235.942 313.624 229.979 313.601 229.154 313.483ZM247.154 305.219C249.079 304.936 253.33 304.037 256.601 303.22C290.837 294.676 319.721 270.996 347.97 228.314C350.619 224.311 352.668 220.838 352.523 220.594C352.111 219.899 320.155 220.627 311.654 221.525C257.245 227.276 215.947 245.611 204.64 269.037C199.078 280.561 200.775 290.787 209.453 298.037C217.877 305.075 231.051 307.584 247.154 305.219ZM317.214 155.024C329.066 152.987 339.566 147.422 349.014 138.172C354.67 132.633 357.864 128.422 360.471 123.063C362.962 117.944 363.098 115.079 360.964 112.69C359.594 111.157 359.352 111.08 356.089 111.124C353.856 111.155 351.64 111.558 349.753 112.275C341.052 115.585 329.502 126.719 320.18 140.787C316.064 146.998 311.617 155.787 312.589 155.787C312.691 155.787 314.772 155.443 317.214 155.024Z" fill="#101010" stroke="#101010"/>
<path d="M41.6544 238.476C29.7034 235.984 21.1764 227.09 24.0774 220.145C25.0994 217.701 26.4034 217.724 28.4114 220.221C29.2654 221.285 31.2115 222.785 32.7335 223.556C35.0845 224.745 36.2764 224.99 40.6454 225.185C47.4844 225.489 51.7074 224.521 58.7024 221.044C69.8484 215.503 79.0684 206.769 90.1144 191.288C98.9794 178.864 105.175 167.757 122.329 133.538C137.039 104.194 141.06 96.4588 147.543 85.0378C157.954 66.6988 165.511 56.1218 174.879 46.7808C184.751 36.9368 191.359 33.1388 198.654 33.1168C203.115 33.1038 207.322 34.2408 208.238 35.7078C208.927 36.8108 208.739 37.1098 206.154 39.0238C200.741 43.0328 194.946 50.8608 185.27 67.2378C179.616 76.8068 165.306 105.213 158.921 119.538C158.063 121.463 157.043 123.713 156.654 124.538C156.265 125.363 155.116 127.951 154.102 130.288C151.399 136.515 139.77 161.118 136.375 167.793C120.31 199.368 107.45 215.804 89.6184 227.547C81.6534 232.793 71.2614 236.992 62.4154 238.539C57.0494 239.478 46.3004 239.446 41.6544 238.476Z" fill="#101010" stroke="#101010"/>
<path d="M774.82 219.276C764.727 217.572 755.472 211.72 752.093 204.907C749.572 199.823 749.832 192.522 752.742 186.662C753.39 185.356 753.783 184.287 753.614 184.287C753.446 184.287 751.924 185.489 750.231 186.958C739.12 196.603 731.777 200.096 723.453 199.696C719.881 199.523 718.699 199.24 716.465 198.023C708.173 193.505 706.792 183.949 712.149 168.16C713.06 165.479 713.633 163.179 713.424 163.049C713.215 162.92 712.043 164.102 710.821 165.676C707.108 170.456 696.806 181.825 692.866 185.491C678.031 199.292 664.325 203.614 654.348 197.632C649.529 194.743 646.571 189.452 645.678 182.124L645.322 179.212L640.239 184.124C632.279 191.816 625.825 196.283 619.183 198.699C616.265 199.76 614.745 199.987 610.404 200.009C605.915 200.033 604.774 199.865 602.533 198.852C599.507 197.484 596.752 194.657 595.222 191.348C593.153 186.872 593.938 176.461 596.907 169.037C597.126 168.487 597.813 166.687 598.431 165.037C599.049 163.387 603.923 153.374 609.263 142.787C619.006 123.467 620.299 120.218 618.908 118.542C617.92 117.352 615.387 117.663 612.476 119.333C604.067 124.155 580.347 151.557 566.639 172.287C560.47 181.616 557.252 188.564 555.063 197.287C554.678 198.821 554.346 199.109 552.389 199.622C546.26 201.225 539.577 199.988 536.222 196.629C532.913 193.315 531.418 186.763 532.962 182.336C533.269 181.456 533.39 180.606 533.231 180.447C533.072 180.288 531.527 181.568 529.798 183.291C523.316 189.751 516.99 194.705 511.951 197.267C508.207 199.171 504.848 199.975 500.654 199.972C493.092 199.966 487.527 196.055 485.587 189.379C484.952 187.195 484.836 185.426 485.073 181.547C485.44 175.547 486.141 172.811 489.144 165.662C489.996 163.632 488.311 165.119 484.002 170.198C474.52 181.376 463.074 191.626 455.089 196.091C449.312 199.322 442.572 200.725 437.36 199.779C423.297 197.229 419.187 183.05 426.689 162.963C436.625 136.361 460.846 112.138 485.603 104.046C502.081 98.6603 519.848 99.4733 530.255 106.09C533.06 107.874 534.404 109.862 534.404 112.229C534.404 115.045 532.782 117.725 531.049 117.771C530.716 117.78 529.388 116.658 528.097 115.278C526.146 113.193 525.165 112.592 522.289 111.718C517.697 110.323 508.963 110.583 503.654 112.273C496.76 114.467 489.514 118.661 482.404 124.573C464.323 139.607 447.904 165.362 447.904 178.686C447.904 182.084 448.015 182.475 449.366 183.825C450.558 185.018 451.251 185.287 453.131 185.287C456.189 185.287 458.397 184.301 462.634 181.044C473.991 172.314 487.765 156.146 504.171 132.287C511.004 122.35 513.893 120.287 520.975 120.287C526.226 120.287 532.404 122.991 532.404 125.29C532.404 125.802 531.029 128.768 529.348 131.879C526.097 137.9 515.7 158.523 514.019 162.287C509.331 172.78 507.704 177.952 507.675 182.455C507.657 185.458 507.798 185.989 508.835 186.83C512.145 189.514 518.476 186.172 527.5 176.975C537.164 167.125 538.864 164.533 545.655 149.287C546.696 146.95 550.688 138.624 554.527 130.787C564.968 109.467 565.746 107.575 565.113 105.051C564.826 103.909 565.035 103.672 567.173 102.727C568.481 102.148 571.15 101.472 573.103 101.225C583.102 99.9593 590.375 105.465 588.399 112.806C588.087 113.962 584.635 121.349 580.726 129.222C569.441 151.951 567.418 156.455 568.909 155.534C569.187 155.362 573.842 149.893 579.255 143.379C590.255 130.142 603.679 116.359 610.654 111.142C618.837 105.022 625.654 102.123 631.904 102.104C642.845 102.073 648.677 110.886 645.433 122.547C644.224 126.894 639.679 136.92 634.898 145.787C623.057 167.746 619.125 176.667 618.535 182.92C618.189 186.589 619.071 187.789 622.106 187.782C626.588 187.772 632.169 183.944 641.169 174.71C647.125 168.599 647.192 168.504 647.824 165.287C651.3 147.597 668.736 123.564 686.904 111.421C697.411 104.398 707.385 101.013 717.404 101.071C722.33 101.099 723.584 101.28 726.154 102.339C729.103 103.554 734.404 107.123 734.404 107.893C734.404 108.11 734.686 108.287 735.031 108.287C735.375 108.287 736.772 105.756 738.133 102.662C739.495 99.5683 742.589 92.9243 745.007 87.8973C747.426 82.8693 749.404 78.6434 749.404 78.5044C749.404 78.1864 770.642 35.6923 771.439 34.4173C773.549 31.0393 780.116 29.7843 785.581 31.7143C791.024 33.6363 793.592 36.5533 793.566 40.7873C793.552 43.2543 792.688 45.3083 787.884 54.2873C783.223 63.0013 768.045 93.0583 764.025 101.537C760.46 109.058 758.797 112.602 752.293 126.537C747.38 137.065 739.704 154.926 737.035 162.037C733.564 171.29 732.379 175.657 732.064 180.347C731.798 184.289 731.864 184.746 732.84 185.722C735.152 188.035 739.462 186.484 746.068 180.962C751.311 176.58 759.746 166.713 765.294 158.475C766.428 156.79 767.733 155.268 768.194 155.091C769.317 154.66 770.404 155.64 770.404 157.084C770.404 159.635 765.9 167.943 760.823 174.756C758.246 178.215 758.081 179.083 760.315 177.431C764.601 174.263 771.699 171.667 775.486 171.885C779.206 172.098 779.312 173.225 775.774 174.957C772.44 176.587 767.519 180.991 765.482 184.166C762.346 189.052 761.693 195.562 763.919 199.734C765.246 202.22 765.804 202.848 768.517 204.912C771.986 207.551 775.578 208.439 781.654 208.16C794.518 207.57 804.553 200.458 808.957 188.81C809.938 186.215 809.8 179.065 808.705 175.787C807.059 170.857 803.479 164.727 795.909 153.869C787.614 141.972 784.956 137.265 783.437 131.784C781.597 125.145 782.323 119.216 785.783 112.616C789.932 104.703 798.255 99.0393 809.494 96.4823C815.114 95.2043 827.365 95.7203 832.331 97.4463C838.718 99.6643 841.792 102.402 842.916 106.874C844.005 111.203 841.73 117.52 837.809 121.064C835.95 122.742 833.34 123.396 832.69 122.345C832.541 122.103 832.864 120.605 833.41 119.018C835.332 113.433 834.403 108.744 830.904 106.369C829.274 105.263 828.808 105.198 824.122 105.426C820.054 105.623 818.555 105.923 816.301 106.989C807.312 111.242 804.391 122.105 809.393 132.682C811.306 136.729 813.822 140.343 819.383 147.037C827.957 157.358 832.069 163.78 834.239 170.242C835.399 173.695 835.494 174.579 835.284 180.037C835.026 186.695 833.984 190.349 830.842 195.603C825.467 204.591 812.873 213.75 801.132 217.207C793.222 219.537 781.724 220.441 774.82 219.276ZM680.3 184.546C685.758 182.004 693.63 174.578 703.848 162.333C716.393 147.297 723.319 136.264 728.939 122.364L730.626 118.191L729.58 116.364C727.862 113.366 725.816 112.287 721.849 112.287C714.342 112.287 706.81 116.772 696.88 127.154C680.988 143.771 667.182 171.678 669.885 181.718C670.995 185.838 675.118 186.958 680.3 184.546Z" fill="#101010" stroke="#101010"/>
<path d="M32.8035 136.802C27.2315 135.567 21.8315 133.309 17.1805 130.273C12.1455 126.986 9.79849 124.766 7.14949 120.781C4.00649 116.052 2.5535 112.658 1.3445 107.223C-2.5115 89.8746 7.01249 68.5486 26.5245 50.8306C48.4025 30.9666 83.4345 15.7916 121.154 9.83956C135.264 7.61256 142.445 7.10355 159.654 7.10955C180.098 7.11655 194.384 8.21257 217.654 11.5566C229.08 13.1996 235.826 14.2755 267.404 19.4975C285.981 22.5685 286.414 22.6336 296.404 23.7636C334.938 28.1266 365.173 25.2446 384.136 15.4036C388.533 13.1226 394.049 7.70056 396.212 3.53756C398.912 -1.66144 400.303 0.164555 398.352 6.34755C394.259 19.3146 378.915 29.7035 355.323 35.4805C334.12 40.6725 307.435 41.3665 277.404 37.5065C265.826 36.0175 232.992 30.1986 222.654 27.8016C216.55 26.3866 195.976 23.1355 184.154 21.7165C173.423 20.4295 148.689 19.8816 140.299 20.7446C116.698 23.1766 97.5295 28.4976 78.8735 37.8006C52.8715 50.7656 33.4425 70.5615 28.8495 88.7685C27.3645 94.6575 27.6505 101.801 29.5365 105.921C35.9115 119.845 58.6065 122.922 79.3825 112.677C83.4125 110.69 85.3355 109.375 87.7675 106.944C89.5035 105.208 91.2115 103.788 91.5635 103.788C93.3305 103.788 93.9515 106.49 92.7935 109.139C87.5925 121.041 73.3015 132.401 58.5605 136.351C52.7625 137.905 38.8705 138.149 32.8035 136.802Z" fill="#101010" stroke="#101010"/>
<path d="M437.404 41.1146C437.404 39.9996 439.269 38.6286 440.26 39.0156C441.05 39.3236 440.98 39.5056 439.654 40.5736C437.948 41.9486 437.404 42.0796 437.404 41.1146Z" fill="#0F0F0F" stroke="#0F0F0F"/>
<path d="M403.486 32.1626C402.414 30.7186 401.057 29.1096 400.471 28.5856C399.041 27.3086 399.115 26.2876 400.636 26.2876C401.617 26.2876 402.378 27.0616 404.379 30.0966C406.692 33.6056 407.073 34.7876 405.89 34.7876C405.64 34.7876 404.558 33.6066 403.486 32.1626Z" fill="#0F0F0F" stroke="#0F0F0F"/>
<path d="M441.716 85.9538C439.627 82.5368 439.186 80.6838 440.698 81.6838C441.402 82.1488 445.904 88.7759 445.904 89.3459C445.904 89.5889 445.489 89.7878 444.981 89.7878C444.367 89.7878 443.273 88.5018 441.716 85.9538Z" fill="#0F0F0F" stroke="#0F0F0F"/>
<path d="M438.461 72.0955C437.323 70.9225 437 70.2865 437.414 70.0315C438.249 69.5155 441.288 72.6035 440.611 73.2805C440.265 73.6265 439.574 73.2445 438.461 72.0955Z" fill="#0F0F0F" stroke="#0F0F0F"/>
<path d="M395.404 88.7466C395.404 87.8356 401.483 80.2876 402.216 80.2876C403.581 80.2876 403.045 81.2496 398.111 87.6626C396.896 89.2426 395.404 89.8406 395.404 88.7466Z" fill="#0F0F0F" stroke="#0F0F0F"/>
<path d="M459.641 56.2666C459.448 55.9556 459.486 55.5305 459.722 55.3245C460.336 54.7905 466.154 55.4346 466.154 56.0376C466.154 56.7556 460.076 56.9696 459.641 56.2666Z" fill="#0F0F0F" stroke="#0F0F0F"/>
<path d="M421.207 91.4964C421.04 91.0614 420.904 89.9844 420.904 89.1014C420.904 86.2274 418.363 73.1514 417.105 69.5514C415.826 65.8894 413.816 62.9224 411.984 61.9924C411.394 61.6934 410.505 61.0824 410.01 60.6334C407.871 58.6984 395.463 55.7684 387.659 55.3544C382.734 55.0944 381.638 54.8954 381.513 54.2394C381.384 53.5624 382.211 53.3954 387.008 53.1304C396.144 52.6244 409.152 49.8724 413.24 47.5794C414.414 46.9204 415.25 46.0324 415.411 45.2734C415.555 44.5934 416.502 42.3494 417.516 40.2874C418.53 38.2254 419.832 34.9914 420.408 33.1024C421.785 28.5874 423.885 18.3904 424.256 14.4124C424.619 10.5284 425.601 10.4734 425.778 14.3264C426.092 21.1794 427.505 35.0854 427.931 35.5124C428.191 35.7734 428.409 36.5614 428.415 37.2624C428.421 37.9634 428.871 39.5184 429.415 40.7174C429.959 41.9154 430.404 43.5394 430.404 44.3244C430.404 46.6084 432.937 49.0504 436.552 50.2524C438.845 51.0154 457.271 55.2874 458.265 55.2874C458.342 55.2874 458.404 55.6244 458.404 56.0374C458.404 56.6314 457.689 56.7874 454.97 56.7874C451.462 56.7874 444.05 57.8794 440.904 58.8604C439.942 59.1604 437.548 60.1574 435.587 61.0754C431.748 62.8734 429.401 65.4054 427.416 69.8934C425.908 73.3044 423.519 83.2324 422.66 89.6624C422.309 92.2964 421.774 92.9724 421.207 91.4964Z" fill="#101010" stroke="#101010"/>
<path d="M442.621 32.6316C442.2 31.5356 447.674 24.2876 448.923 24.2876C450.78 24.2876 450.247 25.2156 445.088 30.9626C443.463 32.7726 442.837 33.1966 442.621 32.6316Z" fill="#0F0F0F" stroke="#0F0F0F"/>
</svg>
